<svg width="16" height="16" viewBox="0 0 16 16" fill="none" xmlns="http://www.w3.org/2000/svg">
<path d="M13.7838 3.05973H13.0921V2.44153C13.0921 2.1978 12.8944 2 12.6506 2H3.34966C3.10586 2 2.90813 2.19783 2.90813 2.44153V4.73736C2.90813 4.98122 3.10586 5.17886 3.34966 5.17886H12.6506C12.8944 5.17886 13.0921 4.98122 13.0921 4.73736V3.94259H13.7838V12.0663H13.0921V11.2715C13.0921 11.0277 12.8944 10.83 12.6506 10.83H3.34966C3.10586 10.83 2.90813 11.0277 2.90813 11.2715V12.0663H2.21653V8.44595H2.90816V9.15228C2.90816 9.39604 3.10589 9.59374 3.34969 9.59374H12.6506C12.8944 9.59374 13.0922 9.39604 13.0922 9.15228V6.85655C13.0922 6.61272 12.8944 6.41505 12.6506 6.41505H3.34966C3.10586 6.41505 2.90813 6.61272 2.90813 6.85655V7.56288H2.21653C1.72966 7.56291 1.3335 7.95905 1.3335 8.44591V12.0662C1.3335 12.5531 1.72963 12.9491 2.21653 12.9491H2.90816V13.5673C2.90816 13.811 3.10589 14.0088 3.34969 14.0088H12.6506C12.8944 14.0088 13.0922 13.811 13.0922 13.5673V12.9491H13.7838C14.2707 12.9491 14.6668 12.5531 14.6668 12.0662V3.94266C14.6668 3.45573 14.2706 3.05973 13.7838 3.05973ZM10.9435 7.56301C10.9435 7.38015 11.0917 7.23182 11.2746 7.23182C11.4575 7.23182 11.6058 7.38012 11.6058 7.56301V8.44595C11.6058 8.62881 11.4576 8.77718 11.2746 8.77718C11.0917 8.77718 10.9435 8.62888 10.9435 8.44595V7.56301ZM9.47181 7.56301C9.47181 7.38015 9.62001 7.23182 9.80291 7.23182C9.98581 7.23182 10.134 7.38012 10.134 7.56301V8.44595C10.134 8.62881 9.98584 8.77718 9.80291 8.77718C9.62007 8.77718 9.47181 8.62888 9.47181 8.44595V7.56301ZM8.00015 7.56301C8.00015 7.38015 8.14838 7.23182 8.33128 7.23182C8.51411 7.23182 8.66248 7.38012 8.66248 7.56301V8.44595C8.66248 8.62881 8.51421 8.77718 8.33128 8.77718C8.14841 8.77718 8.00015 8.62884 8.00015 8.44595V7.56301ZM8.66238 12.8609C8.66238 13.0438 8.51411 13.1921 8.33114 13.1921C8.14831 13.1921 8.00005 13.0439 8.00005 12.8609V11.978C8.00005 11.7953 8.14824 11.647 8.33114 11.647C8.51404 11.647 8.66238 11.7951 8.66238 11.978V12.8609ZM10.134 12.8609C10.134 13.0438 9.98584 13.1921 9.80291 13.1921C9.62007 13.1921 9.47181 13.0439 9.47181 12.8609V11.978C9.47181 11.7953 9.62001 11.647 9.80291 11.647C9.98581 11.647 10.134 11.7951 10.134 11.978V12.8609ZM11.6057 12.8609C11.6057 13.0438 11.4575 13.1921 11.2745 13.1921C11.0917 13.1921 10.9434 13.0439 10.9434 12.8609V11.978C10.9434 11.7953 11.0916 11.647 11.2745 11.647C11.4574 11.647 11.6057 11.7951 11.6057 11.978V12.8609Z" fill="#CFD0D3"/>
</svg>
